HIERARCHY
ROOT hip
{
	OFFSET 0.000000 0.000000 0.000000 
	CHANNELS 6 Xposition Yposition Zposition Xrotation Zrotation Yrotation
	JOINT abdomen
	{
		OFFSET 0.000000 3.402643 0.000000 
		CHANNELS 3 Xrotation Zrotation Yrotation
		JOINT chest
		{
			OFFSET 0.000000 8.438565 -0.680529 
			CHANNELS 3 Xrotation Zrotation Yrotation
			JOINT neck
			{
				OFFSET 0.000000 10.207942 -0.272212 
				CHANNELS 3 Xrotation Zrotation Yrotation
				JOINT head
				{
					OFFSET 0.000000 3.130431 0.000000 
					CHANNELS 3 Xrotation Zrotation Yrotation
					End Site
					{
						OFFSET 0.000000 3.130435 0.000000 
					}
				}
			}
			JOINT lCollar
			{
				OFFSET 3.470700 6.669187 -0.816635 
				CHANNELS 3 Yrotation Zrotation Xrotation
				JOINT lShldr
				{
					OFFSET 3.198488 0.000000 0.000000 
					CHANNELS 3 Zrotation Yrotation Xrotation
					JOINT lForeArm
					{
						OFFSET 10.139888 0.000000 0.000000 
						CHANNELS 3 Yrotation Zrotation Xrotation
						JOINT lHand
						{
							OFFSET 8.370511 0.000000 0.000000 
							CHANNELS 3 Zrotation Yrotation Xrotation
							End Site
							{
								OFFSET 4.083176 0.000000 0.000000 
							}
						}
					}
				}
			}
			JOINT rCollar
			{
				OFFSET -3.470700 6.669187 -0.816635 
				CHANNELS 3 Yrotation Zrotation Xrotation
				JOINT rShldr
				{
					OFFSET -3.198488 0.000000 0.000000 
					CHANNELS 3 Zrotation Yrotation Xrotation
					JOINT rForeArm
					{
						OFFSET -10.139888 0.000000 0.000000 
						CHANNELS 3 Yrotation Zrotation Xrotation
						JOINT rHand
						{
							OFFSET -8.370511 0.000000 0.000000 
							CHANNELS 3 Zrotation Yrotation Xrotation
							End Site
							{
								OFFSET -4.083176 0.000000 0.000000 
							}
						}
					}
				}
			}
		}
	}
	JOINT lThigh
	{
		OFFSET 5.308129 -1.633274 1.361059 
		CHANNELS 3 Xrotation Zrotation Yrotation
		JOINT lShin
		{
			OFFSET -2.041588 -20.007561 0.000000 
			CHANNELS 3 Xrotation Zrotation Yrotation
			JOINT lFoot
			{
				OFFSET 0.000000 -19.190928 -1.224953 
				CHANNELS 3 Xrotation Yrotation Zrotation
				End Site
				{
					OFFSET 0.000000 -2.449906 4.627600 
				}
			}
		}
	}
	JOINT rThigh
	{
		OFFSET -5.308129 -1.633274 1.361059 
		CHANNELS 3 Xrotation Zrotation Yrotation
		JOINT rShin
		{
			OFFSET 2.041588 -20.007561 0.000000 
			CHANNELS 3 Xrotation Zrotation Yrotation
			JOINT rFoot
			{
				OFFSET 0.000000 -19.190928 -1.224953 
				CHANNELS 3 Xrotation Yrotation Zrotation
				End Site
				{
					OFFSET 0.000000 -2.449906 4.627600 
				}
			}
		}
	}
}
MOTION
Frames: 18
Frame Time: 0.011111
5.854905 52.905304 -12.301646 -2.855406 1.375972 -12.222514 26.404768 -4.736110 -0.912076 -21.700989 -0.167491 0.163856 -14.561855 -8.503129 -2.594341 18.863571 9.978082 -6.461809 2.424333 -4.683778 1.783845 -68.821625 -31.346918 3.550425 -56.329498 8.866953 10.794075 8.524705 12.647240 -48.548229 -2.738486 -1.140572 2.095526 71.095253 25.048798 17.220982 65.485863 -9.456251 14.927011 -8.534408 -12.637552 49.632668 1.492951 25.455433 5.127836 -0.119368 -5.950253 -0.672080 -4.990565 -0.514076 -3.236887 6.561458 -12.034539 17.538181 12.891149 5.944526 2.533828 -24.315208 -14.404171 -3.122199 
5.856409 52.907715 -12.304654 -2.836812 1.363015 -12.172313 26.364458 -4.702954 -0.913750 -21.730267 -0.177164 0.164354 -14.462316 -8.477968 -2.608530 18.823553 9.965339 -6.470648 2.424333 -4.683778 1.783845 -68.721626 -31.319197 4.338929 -56.626755 8.908424 10.916689 8.524705 12.647240 -48.069710 -2.738486 -1.140572 2.095526 71.045586 25.049793 17.541513 65.793877 -9.448139 15.067239 -8.534408 -12.637552 49.788921 1.492950 25.455433 5.127837 -0.119369 -5.950253 -0.672080 -4.989382 -0.513439 -3.247137 6.523018 -11.989488 17.534475 12.944836 5.945275 2.528501 -24.295843 -14.457962 -3.154390 
5.856409 52.907410 -12.310667 -2.827654 1.347492 -12.132108 26.344044 -4.686267 -0.902402 -21.739981 -0.206406 0.165627 -14.401729 -8.433153 -2.649874 18.811617 9.925356 -6.521503 2.424333 -4.683778 1.783845 -68.642769 -31.349741 4.942387 -56.934704 8.950402 11.051606 8.524705 12.647240 -47.864635 -2.738486 -1.140572 2.095526 70.996391 25.070316 17.852283 66.113304 -9.440295 15.217956 -8.534408 -12.637552 49.906109 1.492949 25.455433 5.127837 -0.119369 -5.950253 -0.672080 -4.990994 -0.512867 -3.236361 6.521765 -11.954419 17.537863 12.959622 5.934976 2.548836 -24.359777 -14.464782 -3.169992 
5.855206 52.906509 -12.310667 -2.856200 1.340849 -12.142549 26.334690 -4.706673 -0.878392 -21.730198 -0.215779 0.175761 -14.476649 -8.332269 -2.662614 18.966930 9.809200 -6.543069 2.424333 -4.683778 1.783845 -68.614853 -31.438087 5.381085 -57.273739 8.991710 11.197972 8.524705 12.647240 -47.835339 -2.738486 -1.140572 2.095526 70.937035 25.081270 18.139027 66.442436 -9.428991 15.378581 -8.534408 -12.637552 49.867046 1.492949 25.455433 5.127836 -0.119369 -5.950252 -0.672080 -4.999313 -0.514332 -3.247684 6.579864 -11.974194 17.494425 12.902271 5.943707 2.534591 -24.331154 -14.412047 -3.142297 
5.852199 52.905304 -12.314578 -2.856353 1.293054 -12.120614 26.313612 -4.663965 -0.828247 -21.700933 -0.195946 0.184593 -14.582546 -8.275027 -2.639479 19.173759 9.712255 -6.506677 2.424333 -4.683778 1.783845 -68.648254 -31.603607 5.811515 -57.538082 9.020557 11.312697 8.524705 12.647240 -47.796276 -2.738486 -1.140572 2.095526 70.828712 25.122501 18.369583 66.707954 -9.418338 15.504203 -8.534408 -12.637552 49.788921 1.492953 25.455433 5.127835 -0.119368 -5.950254 -0.672080 -4.999557 -0.517656 -3.238490 6.621076 -11.920632 17.460247 12.862740 5.935349 2.540046 -24.231956 -14.482141 -3.127674 
5.849192 52.903198 -12.319088 -2.828051 1.242609 -12.078053 26.242872 -4.600846 -0.776607 -21.652172 -0.157074 0.182829 -14.614611 -8.346930 -2.595967 19.335966 9.825780 -6.407578 2.424333 -4.683778 1.783845 -68.691833 -31.778732 6.315688 -57.772655 9.051142 11.414259 8.524705 12.647240 -47.835339 -2.738486 -1.140572 2.095526 70.680878 25.174280 18.608513 66.974518 -9.408628 15.631014 -8.534408 -12.637552 49.720562 1.492951 25.455433 5.127836 -0.119369 -5.950253 -0.672080 -4.989358 -0.517515 -3.238276 6.640587 -11.844905 17.478121 12.819866 5.936246 2.516165 -24.172291 -14.581142 -3.137803 
5.850394 52.901699 -12.313073 -2.847383 1.258999 -12.059937 26.204300 -4.613297 -0.770569 -21.613146 -0.137290 0.191695 -14.656741 -8.426174 -2.538763 19.452595 10.015488 -6.282941 2.424333 -4.683778 1.783845 -68.694176 -31.886133 6.813733 -58.080185 9.084715 11.552464 8.524705 12.647240 -47.893932 -2.738486 -1.140572 2.095526 70.551720 25.176834 18.906721 67.303169 -9.390841 15.782904 -8.534408 -12.637552 49.671730 1.492950 25.455437 5.127836 -0.119370 -5.950253 -0.672080 -4.989498 -0.513105 -3.246998 6.687191 -11.885242 17.441950 12.772453 5.946466 2.502959 -24.215776 -14.533756 -3.146584 
5.850695 52.901096 -12.310067 -2.914494 1.274967 -12.043416 26.234293 -4.634584 -0.773020 -21.583866 -0.127631 0.191238 -14.773916 -8.411355 -2.482711 19.606333 10.054172 -6.171958 2.424333 -4.683778 1.783845 -68.666496 -31.984245 7.369618 -58.409409 9.119123 11.692225 8.524705 12.647240 -47.786514 -2.738486 -1.140572 2.095526 70.454712 25.276421 19.176685 67.566841 -9.372851 15.910015 -8.534408 -12.637552 49.622898 1.492952 25.455433 5.127836 -0.119372 -5.950253 -0.672080 -4.990439 -0.510421 -3.245934 6.795358 -11.927328 17.434805 12.698107 5.944097 2.496623 -24.250732 -14.512383 -3.139108 
5.847688 52.901402 -12.314578 -2.933876 1.233379 -12.012596 26.272253 -4.590345 -0.777929 -21.603415 -0.118199 0.181133 -14.890000 -8.363553 -2.455542 19.796307 10.037560 -6.101954 2.424333 -4.683778 1.783845 -68.607269 -32.004707 8.139604 -58.750534 9.158038 11.851332 8.524705 12.647240 -47.522842 -2.738486 -1.140572 2.095526 70.358398 25.405293 19.388054 67.717194 -9.367826 15.985122 -8.534408 -12.637552 49.574078 1.492951 25.455433 5.127836 -0.119372 -5.950253 -0.672080 -4.989306 -0.517658 -3.238341 6.854737 -11.882017 17.458530 12.654111 5.945975 2.492336 -24.254406 -14.572615 -3.155518 
5.845883 52.901993 -12.316683 -2.924798 1.189137 -11.961137 26.261246 -4.547010 -0.778788 -21.662025 -0.108256 0.180853 -14.850194 -8.352675 -2.464879 19.865284 10.074618 -6.104430 2.424333 -4.683778 1.783845 -68.526672 -31.957136 8.977450 -59.069954 9.190056 11.989605 8.524705 12.647240 -47.278694 -2.738486 -1.140572 2.095526 70.229446 25.417583 19.676493 67.981499 -9.349293 16.112101 -8.534408 -12.637552 49.632668 1.492949 25.455433 5.127837 -0.119370 -5.950252 -0.672080 -4.988011 -0.521365 -3.239917 6.892817 -11.829015 17.453274 12.600912 5.944325 2.487817 -24.271255 -14.621932 -3.191215 
5.844079 52.897789 -12.316382 -2.972749 1.141019 -11.940619 26.269197 -4.509274 -0.717036 -21.720583 -0.127174 0.191542 -14.672765 -8.341575 -2.517067 19.823153 10.139184 -6.172791 2.424333 -4.683778 1.783845 -68.416893 -31.939320 9.770315 -59.367527 9.216344 12.119683 8.524705 12.647240 -47.054085 -2.738486 -1.140572 2.095526 70.147385 25.311735 20.035021 68.466927 -9.310294 16.343086 -8.534408 -12.637552 49.798687 1.492952 25.455433 5.127836 -0.119373 -5.950252 -0.672080 -4.991173 -0.512350 -3.236140 6.990536 -11.790881 17.465183 12.567703 5.946680 2.474711 -24.292530 -14.624374 -3.195769 
5.841071 52.893578 -12.318186 -3.001290 1.114942 -11.949932 26.249372 -4.519985 -0.664273 -21.779140 -0.145649 0.212026 -14.504132 -8.302264 -2.574758 19.771086 10.172709 -6.248813 2.424333 -4.683778 1.783845 -68.307106 -31.921497 10.558578 -59.655529 9.243538 12.247048 8.524705 12.647240 -46.878307 -2.738486 -1.140572 2.095526 70.084526 25.176203 20.399841 68.932610 -9.272587 16.569956 -8.534408 -12.637552 49.974464 1.492951 25.455433 5.127836 -0.119369 -5.950255 -0.672080 -4.990238 -0.515025 -3.237288 7.048846 -11.770844 17.456060 12.536070 5.945598 2.462254 -24.266283 -14.607121 -3.190953 
5.838364 52.894180 -12.319388 -2.982286 1.119494 -11.939800 26.191111 -4.536989 -0.646990 -21.808470 -0.126028 0.211249 -14.404534 -8.265418 -2.620352 19.769419 10.154572 -6.291863 2.424333 -4.683778 1.783845 -68.218468 -31.961945 11.327801 -59.909447 9.259739 12.355521 8.524705 12.647240 -46.790417 -2.738486 -1.140572 2.095526 69.943817 25.110556 20.766029 69.270172 -9.240872 16.736052 -8.534408 -12.637552 50.052597 1.492950 25.455433 5.127836 -0.119369 -5.950253 -0.672080 -4.990145 -0.515282 -3.237310 7.019488 -11.770600 17.397255 12.536075 5.945589 2.462254 -24.194479 -14.597782 -3.163054 
5.837163 52.895683 -12.315480 -2.963290 1.133792 -11.930169 26.113388 -4.553935 -0.630988 -21.779226 -0.096445 0.219679 -14.405111 -8.272614 -2.648745 19.795153 10.176430 -6.362698 2.424333 -4.683778 1.783845 -68.130669 -32.041439 12.165384 -60.155231 9.282398 12.470942 8.524705 12.647240 -46.849010 -2.738486 -1.140572 2.095526 69.795921 25.162243 21.092812 69.545273 -9.215556 16.874269 -8.534408 -12.637552 50.052597 1.492950 25.455433 5.127836 -0.119370 -5.950252 -0.672080 -4.999120 -0.510870 -3.256814 7.001779 -11.784927 17.366848 12.557320 5.946372 2.464073 -24.197664 -14.619446 -3.153984 
5.836261 52.895683 -12.312171 -2.944303 1.157836 -11.921031 26.055449 -4.575862 -0.627353 -21.710882 -0.086950 0.219155 -14.455154 -8.284198 -2.678093 19.833138 10.285394 -6.408074 2.424333 -4.683778 1.783845 -67.992722 -32.102177 13.148195 -60.410351 9.299615 12.580662 8.524705 12.647240 -46.927135 -2.738486 -1.140572 2.095526 69.698387 25.242252 21.392054 69.828255 -9.182099 17.005161 -8.534408 -12.637552 50.150249 1.492950 25.455433 5.127836 -0.119369 -5.950253 -0.672080 -4.990017 -0.511618 -3.246363 6.981078 -11.800858 17.375076 12.567709 5.946668 2.474710 -24.264444 -14.660844 -3.192011 
5.835658 52.894779 -12.310667 -2.944640 1.178846 -11.892775 26.006874 -4.583653 -0.659660 -21.662073 -0.077781 0.208923 -14.443531 -8.236516 -2.691849 19.794077 10.285180 -6.420428 2.424333 -4.683778 1.783845 -67.833412 -32.094852 14.198866 -60.751610 9.324751 12.733033 8.524705 12.647240 -46.653702 -2.738486 -1.140572 2.095526 69.600388 25.302736 21.671757 70.145233 -9.149354 17.167511 -8.534408 -12.637552 50.296734 1.492951 25.455433 5.127836 -0.119368 -5.950252 -0.672080 -4.999136 -0.518858 -3.239010 6.989618 -11.806943 17.373777 12.546467 5.945881 2.472890 -24.292986 -14.689891 -3.215903 
5.834455 52.895084 -12.306759 -2.954591 1.149587 -11.852461 25.956709 -4.537093 -0.666479 -21.642525 -0.087610 0.209294 -14.372612 -8.184020 -2.707628 19.745775 10.330824 -6.422740 2.424333 -4.683778 1.783845 -67.712639 -32.028328 15.216062 -61.168053 9.354009 12.923200 8.524705 12.647240 -46.106823 -2.738486 -1.140572 2.095526 69.491753 25.334106 21.927393 70.459511 -9.109600 17.322920 -8.534408 -12.637552 50.423687 1.492954 25.455433 5.127835 -0.119371 -5.950252 -0.672080 -4.987812 -0.521951 -3.240159 7.031353 -11.785642 17.403822 12.536784 5.943457 2.471786 -24.321280 -14.719352 -3.240000 
5.832049 52.892673 -12.306458 -3.002582 1.121076 -11.832913 25.965879 -4.517058 -0.638752 -21.662111 -0.058266 0.208121 -14.334404 -8.217870 -2.695333 19.790146 10.495352 -6.378304 2.424333 -4.683778 1.783845 -67.581932 -31.961945 16.287012 -61.497822 9.371015 13.068908 8.524705 12.647240 -45.735729 -2.738486 -1.140572 2.095526 69.352837 25.346510 22.205683 70.752464 -9.070300 17.464960 -8.534408 -12.637552 50.609234 1.492951 25.455433 5.127836 -0.119371 -5.950254 -0.672080 -4.990201 -0.515127 -3.237245 7.097280 -11.759860 17.396511 12.536074 5.945588 2.462254 -24.352169 -14.748156 -3.252041 
